<?xml version="1.0" encoding="UTF-8"?>
<!DOCTYPE svg PUBLIC "-//W3C//DTD SVG 1.1//EN" "http://www.w3.org/Graphics/SVG/1.1/DTD/svg11.dtd">
<!-- Creator: CorelDRAW -->
<svg xmlns="http://www.w3.org/2000/svg" xml:space="preserve" width="152.4mm" height="118.533mm" version="1.1" style="shape-rendering:geometricPrecision; text-rendering:geometricPrecision; image-rendering:optimizeQuality; fill-rule:evenodd; clip-rule:evenodd"
viewBox="0 0 13400.74 10422.79"
 xmlns:xlink="http://www.w3.org/1999/xlink"
 xmlns:xodm="http://www.corel.com/coreldraw/odm/2003">
 <defs>
  <style type="text/css">
   <![CDATA[
    .fil0 {fill:#000066;fill-rule:nonzero}
   ]]>
  </style>
 </defs>
 <g id="Camada_x0020_1">
  <metadata id="CorelCorpID_0Corel-Layer"/>
  <path class="fil0" d="M7188.94 1721.62c265.23,-162.86 442.04,-458.32 442.04,-791.01 0,-514.16 -416.44,-930.6 -930.6,-930.6 -514.16,0 -930.6,416.44 -930.6,930.6 0,335.02 176.81,628.16 442.04,791.01l-1333.1 2666.19c-211.71,423.42 -760.77,544.41 -1130.69,248.93l-2072.92 -1658.8c116.32,-155.88 186.12,-348.98 186.12,-558.36 0,-514.16 -416.44,-930.6 -930.6,-930.6 -514.16,0 -930.61,416.44 -930.61,930.6 0,514.16 416.44,930.6 930.6,930.6 4.65,0 11.63,0 16.28,0l1063.22 5848.86c127.96,707.26 744.49,1223.75 1465.71,1223.75l6449.1 0c718.89,0 1335.42,-514.16 1465.71,-1223.75l1063.21 -5848.86c4.65,0 11.63,0 16.28,0 514.16,0 930.6,-416.44 930.6,-930.6 0,-514.16 -416.44,-930.6 -930.6,-930.6 -514.16,0 -930.6,416.44 -930.6,930.6 0,209.39 69.8,402.49 186.12,558.36l-2072.93 1658.81c-369.92,295.47 -918.97,174.49 -1130.69,-248.93l-1333.09 -2666.19z"/>
 </g>
</svg>
